<?xml version="1.0" encoding="iso-8859-1"?>
<!-- Uploaded to: SVG Repo, www.svgrepo.com, Generator: SVG Repo Mixer Tools -->
<svg height="800px" width="800px" version="1.1" id="Layer_1" xmlns="http://www.w3.org/2000/svg" xmlns:xlink="http://www.w3.org/1999/xlink" 
	 viewBox="0 0 512 512" xml:space="preserve">
<path style="fill:#754F1E;" d="M256,512c-4.713,0-8.533-3.821-8.533-8.533V358.4c0-4.713,3.821-8.533,8.533-8.533
	c4.713,0,8.533,3.821,8.533,8.533v145.067C264.534,508.18,260.713,512,256,512z"/>
<path style="fill:#F36280;" d="M353.503,247.896c8.339-9.108,13.43-21.239,13.43-34.562c0-28.277-22.923-51.2-51.2-51.2
	c-3.638,0-7.187,0.386-10.611,1.107c-3.718-11.776-11.679-22.251-23.216-28.912c-24.489-14.139-55.802-5.748-69.94,18.74
	c-1.82,3.151-3.26,6.417-4.347,9.743c-12.058-2.668-25.109-1.011-36.646,5.65c-24.489,14.139-32.879,45.452-18.74,69.94
	c1.82,3.151,3.927,6.031,6.265,8.636c-8.339,9.108-13.43,21.239-13.43,34.562c0,28.277,22.923,51.2,51.2,51.2
	c3.638,0,7.187-0.386,10.611-1.107c3.718,11.776,11.679,22.251,23.216,28.912c24.489,14.139,55.802,5.748,69.94-18.74
	c1.82-3.151,3.26-6.417,4.347-9.743c12.058,2.668,25.109,1.011,36.646-5.65c24.489-14.139,32.879-45.452,18.74-69.94
	C357.948,253.38,355.84,250.5,353.503,247.896z M256,264.534c-9.426,0-17.067-7.641-17.067-17.067
	c0-9.426,7.641-17.067,17.067-17.067c9.426,0,17.067,7.641,17.067,17.067C273.067,256.893,265.426,264.534,256,264.534z"/>
<path style="fill:#E05161;" d="M255.646,350.406c-5.942,0-11.827-1.584-17.02-4.581c-7.405-4.275-12.901-11.119-15.475-19.27
	l-4.658-14.752l-15.137,3.191c-2.332,0.491-4.718,0.74-7.09,0.74c-18.821,0-34.133-15.312-34.133-34.133
	c0-8.551,3.179-16.733,8.951-23.037l10.446-11.409l-10.331-11.514c-1.591-1.774-3.001-3.715-4.188-5.773
	c-4.558-7.895-5.77-17.093-3.409-25.9c2.359-8.806,8.007-16.167,15.904-20.726c5.188-2.995,11.07-4.578,17.011-4.578
	c2.484,0,4.979,0.273,7.415,0.812l15.104,3.342l4.805-14.704c0.74-2.266,1.717-4.457,2.905-6.512
	c6.08-10.531,17.425-17.074,29.607-17.074c5.942,0,11.827,1.584,17.02,4.581c7.405,4.275,12.901,11.119,15.475,19.27l4.658,14.75
	l15.135-3.188c2.333-0.492,4.719-0.74,7.091-0.74c18.821,0,34.133,15.312,34.133,34.133c0,8.55-3.179,16.732-8.951,23.037
	l-10.445,11.407l10.329,11.513c1.593,1.776,3.002,3.718,4.19,5.774c4.557,7.895,5.769,17.093,3.409,25.9
	c-2.361,8.806-8.009,16.167-15.904,20.726c-5.187,2.995-11.07,4.578-17.009,4.578c-0.001,0-0.001,0-0.001,0
	c-2.486,0-4.981-0.273-7.417-0.812l-15.105-3.342l-4.804,14.706c-0.739,2.265-1.716,4.453-2.902,6.509
	C279.174,343.864,267.829,350.406,255.646,350.406z M256,230.4c-9.411,0-17.067,7.655-17.067,17.067
	c0,9.411,7.655,17.067,17.067,17.067c9.41,0,17.067-7.655,17.067-17.067C273.067,238.056,265.41,230.4,256,230.4z"/>
<g>
	<path style="fill:#F9AA0C;" d="M230.4,307.2c0-9.412,11.344-25.2,18.929-34.705c3.42-4.285,9.921-4.285,13.341,0
		c7.586,9.505,18.93,25.293,18.93,34.705c0,14.139-11.461,25.6-25.6,25.6C241.862,332.8,230.4,321.339,230.4,307.2z"/>
	<path style="fill:#F9AA0C;" d="M294.93,299.504c-8.15-4.706-16.151-22.425-20.591-33.746c-2.001-5.104,1.249-10.735,6.671-11.553
		c12.023-1.817,31.37-3.747,39.52,0.959c12.244,7.069,16.439,22.726,9.371,34.971C322.832,302.378,307.175,306.573,294.93,299.504z"
		/>
	<path style="fill:#F9AA0C;" d="M320.53,239.771c-8.15,4.706-27.497,2.775-39.52,0.959c-5.421-0.819-8.672-6.449-6.671-11.553
		c4.438-11.322,12.439-29.04,20.591-33.746c12.244-7.069,27.901-2.874,34.971,9.371C336.97,217.045,332.775,232.701,320.53,239.771z
		"/>
	<path style="fill:#F9AA0C;" d="M281.6,187.734c0,9.412-11.344,25.2-18.929,34.705c-3.42,4.285-9.921,4.285-13.341,0
		c-7.586-9.505-18.93-25.293-18.93-34.705c0-14.139,11.461-25.6,25.6-25.6C270.139,162.134,281.6,173.595,281.6,187.734z"/>
	<path style="fill:#F9AA0C;" d="M217.07,195.43c8.15,4.706,16.151,22.425,20.591,33.746c2.001,5.104-1.249,10.735-6.671,11.553
		c-12.023,1.817-31.37,3.747-39.52-0.959c-12.244-7.069-16.439-22.726-9.371-34.971C189.168,192.556,204.826,188.361,217.07,195.43z
		"/>
	<path style="fill:#F9AA0C;" d="M191.47,255.163c8.15-4.706,27.497-2.775,39.52-0.959c5.421,0.819,8.672,6.449,6.671,11.553
		c-4.438,11.322-12.439,29.04-20.591,33.746c-12.244,7.069-27.901,2.874-34.971-9.371
		C175.031,277.889,179.226,262.233,191.47,255.163z"/>
</g>
<g>
	<path style="fill:#F9C900;" d="M256,324.267c-9.41,0-17.067-7.657-17.067-17.067c0-3.69,4.469-13.599,17.067-29.382
		c12.597,15.786,17.067,25.694,17.067,29.382C273.067,316.611,265.41,324.267,256,324.267z"/>
	<path style="fill:#F9C900;" d="M322.511,285.867c-4.705,8.149-15.164,10.953-23.313,6.246c-3.196-1.844-9.542-10.67-16.913-29.471
		c19.969-3.017,30.785-1.934,33.98-0.09C324.414,267.259,327.216,277.718,322.511,285.867z"/>
	<path style="fill:#F9C900;" d="M322.511,209.067c4.705,8.149,1.903,18.608-6.246,23.313c-3.196,1.844-14.011,2.929-33.979-0.089
		c7.372-18.802,13.717-27.628,16.912-29.472C307.347,198.115,317.806,200.918,322.511,209.067z"/>
	<path style="fill:#F9C900;" d="M256,170.667c9.41,0,17.067,7.657,17.067,17.067c0,3.69-4.469,13.599-17.067,29.382
		c-12.597-15.786-17.067-25.694-17.067-29.382C238.934,178.324,246.59,170.667,256,170.667z"/>
	<path style="fill:#F9C900;" d="M189.489,209.067c4.705-8.149,15.164-10.953,23.313-6.246c3.196,1.844,9.542,10.67,16.913,29.471
		c-19.969,3.017-30.785,1.934-33.98,0.09C187.586,227.675,184.784,217.216,189.489,209.067z"/>
	<path style="fill:#F9C900;" d="M189.489,285.867c-4.705-8.149-1.903-18.608,6.246-23.313c3.196-1.844,14.012-2.929,33.979,0.089
		c-7.372,18.802-13.717,27.628-16.912,29.472C204.653,296.82,194.194,294.016,189.489,285.867z"/>
</g>
<path style="fill:#90BF2C;" d="M367.26,372.792c-0.804-3.03-3.154-5.381-6.186-6.186c-25.588-6.787-53.994-0.161-74.061,19.906
	c-21.188,21.188-27.391,51.672-18.643,78.32c0.102,0.313,0.351,0.56,0.662,0.662c26.649,8.749,57.132,2.545,78.32-18.643
	C367.422,426.786,374.047,398.38,367.26,372.792z"/>
<g>
	<path style="fill:#72A938;" d="M361.088,366.612c-4.31-1.143-8.701-1.906-13.118-2.289c8.061,26.299,1.712,56.066-19.094,76.871
		c-16.311,16.311-38.131,23.74-59.47,22.305c-0.718-0.048-1.26,0.633-1.039,1.317c0.002,0.006,0.004,0.013,0.006,0.019
		c0.1,0.311,0.347,0.557,0.657,0.659c26.649,8.75,57.134,2.547,78.323-18.642c20.067-20.067,26.693-48.471,19.906-74.059
		C366.458,369.768,364.115,367.414,361.088,366.612z"/>
	<path style="fill:#72A938;" d="M323.03,410.466c-3.402-3.203-8.828-2.867-12.132,0.436l-44.886,44.886
		c0.604,3.05,1.386,6.07,2.361,9.042c0.102,0.314,0.352,0.562,0.665,0.665c2.972,0.975,5.994,1.757,9.042,2.361l45.14-45.14
		C326.614,419.322,326.55,413.78,323.03,410.466z"/>
</g>
<path style="fill:#90BF2C;" d="M144.741,372.792c0.804-3.03,3.154-5.381,6.186-6.186c25.588-6.787,53.994-0.161,74.061,19.906
	c21.188,21.188,27.391,51.672,18.643,78.32c-0.102,0.313-0.351,0.56-0.662,0.662c-26.649,8.749-57.132,2.545-78.32-18.643
	C144.578,426.786,137.953,398.38,144.741,372.792z"/>
<g>
	<path style="fill:#72A938;" d="M150.912,366.612c4.31-1.143,8.701-1.906,13.118-2.289c-8.061,26.299-1.712,56.066,19.094,76.871
		c16.311,16.311,38.131,23.74,59.47,22.305c0.718-0.048,1.26,0.633,1.039,1.317c-0.002,0.006-0.004,0.013-0.006,0.019
		c-0.1,0.311-0.347,0.557-0.657,0.659c-26.649,8.75-57.134,2.547-78.323-18.642c-20.067-20.067-26.693-48.471-19.906-74.059
		C145.543,369.768,147.885,367.414,150.912,366.612z"/>
	<path style="fill:#72A938;" d="M188.971,410.466c3.402-3.203,8.829-2.867,12.132,0.436l44.886,44.886
		c-0.604,3.05-1.386,6.07-2.361,9.042c-0.102,0.314-0.352,0.562-0.665,0.665c-2.972,0.975-5.994,1.757-9.042,2.361l-45.14-45.14
		C185.387,419.322,185.451,413.78,188.971,410.466z"/>
</g>
<path style="fill:#40CACF;" d="M110.934,247.467c0-80.429,65.453-145.57,145.999-145.063
	c80.074,0.503,144.134,64.989,144.134,145.063c0,37.157-13.97,71.052-36.945,96.718c-3.022,3.376-2.886,8.517,0.317,11.721
	l24.309,24.309c33.762-33.762,54.724-80.323,54.983-131.781c0.522-103.533-83.836-188.504-187.369-188.7
	C152.514,59.538,68.267,143.664,68.267,247.467c0,51.841,21.012,98.774,54.986,132.748l24.308-24.308
	c3.209-3.209,3.331-8.354,0.305-11.734C124.899,318.507,110.934,284.618,110.934,247.467z"/>
<path style="fill:#F5E038;" d="M256.469,0C120.123-0.252,8.631,110.941,8.534,247.287C8.488,312.543,33.699,371.91,74.93,416.15
	c3.274,3.513,8.831,3.556,12.225,0.161l36.097-36.097c-33.762-33.762-54.724-80.323-54.983-131.781
	C67.747,144.901,152.105,59.93,255.638,59.734c103.849-0.196,188.096,83.931,188.096,187.733c0,51.841-21.012,98.774-54.986,132.748
	l36.093,36.093c3.426,3.426,9.005,3.306,12.307-0.241c41.148-44.19,66.319-103.455,66.319-168.599
	C503.467,110.951,392.926,0.254,256.469,0z"/>
</svg>